<svg xmlns="http://www.w3.org/2000/svg" viewBox="0 0 64 64">
  <defs>
    <linearGradient id="bg" x1="0%" y1="0%" x2="100%" y2="100%">
      <stop offset="0%" style="stop-color:#6366f1"/>
      <stop offset="100%" style="stop-color:#4f46e5"/>
    </linearGradient>
  </defs>
  <rect width="64" height="64" rx="14" fill="url(#bg)"/>
  <path d="M38 22l8.5-4.25A1.5 1.5 0 0149 19.1v15.8a1.5 1.5 0 01-2.5 1.35L38 32M17 38h14a4 4 0 004-4V20a4 4 0 00-4-4H17a4 4 0 00-4 4v14a4 4 0 004 4z" fill="none" stroke="white" stroke-width="3" stroke-linecap="round" stroke-linejoin="round"/>
  <circle cx="32" cy="46" r="3" fill="#34d399"/>
  <circle cx="24" cy="46" r="3" fill="#34d399" opacity="0.5"/>
  <circle cx="40" cy="46" r="3" fill="#34d399" opacity="0.5"/>
</svg>
